<?xml version="1.0" encoding="UTF-8"?>
<!-- Uploaded to: SVG Repo, www.svgrepo.com, Generator: SVG Repo Mixer Tools -->
<svg width="800px" height="800px" viewBox="0 -20 131 131" version="1.1" xmlns="http://www.w3.org/2000/svg" xmlns:xlink="http://www.w3.org/1999/xlink">
    
    <title>010-Unicorn</title>
    <desc>Created with Sketch.</desc>
    <defs>

</defs>
    <g id="Page-1" stroke="none" stroke-width="1" fill="none" fill-rule="evenodd">
        <g id="Artboard" transform="translate(-433.000000, -706.000000)">
            <g id="010-Unicorn" transform="translate(433.000000, 706.000000)">
                <path d="M104.586,11.9203 C105.122,13.3893 109.474,14.8443 110.406,14.4013 C111.339,13.9593 112.185,4.8823 110.406,3.8553 C108.627,2.8283 104.05,10.4513 104.586,11.9203" id="Fill-1318" fill="#FEFDFC">

</path>
                <path d="M100.8949,6.0919 C84.5379,5.6959 79.0349,33.6479 79.0349,33.6479 C79.0349,33.6479 74.2999,30.3359 72.9579,31.5359 C71.6169,32.7369 79.7559,43.3829 82.4389,43.2879 C86.5689,43.1409 110.7379,14.3489 110.7379,14.3489 C110.7379,14.3489 111.6249,6.3519 100.8949,6.0919" id="Fill-1320" fill="#D47087">

</path>
                <path d="M14.0161,31.4408 C9.6541,32.1278 5.9921,23.4068 2.3521,23.4448 C-0.0969,23.4698 9.2471,38.3688 9.2471,38.3688 L17.1981,36.5988 C17.1981,36.5988 18.0281,30.8088 14.0161,31.4408" id="Fill-1322" fill="#B55D75">

</path>
                <path d="M23.0999,23.5576 C17.1099,23.9166 11.9469,36.4406 10.2679,35.3036 C4.1399,31.1546 4.6499,22.3446 1.8409,23.5576 C-0.9681,24.7706 2.3489,35.7616 5.9549,40.5386 C9.5609,45.3166 14.4889,49.1386 24.0929,48.5406 C33.6969,47.9416 34.6669,41.0496 34.6999,36.4536 C34.7329,31.8566 29.1489,23.1946 23.0999,23.5576" id="Fill-1324" fill="#D47087">

</path>
                <path d="M62.4853,35.0483 C52.4063,30.9633 35.3603,28.7243 20.5973,37.1083 C10.8943,42.6193 10.0243,54.8393 12.8883,62.1813 C16.5333,71.5263 42.3573,86.5573 51.9693,88.8093 C61.5813,91.0603 74.8523,91.3133 81.4173,88.6253 C87.9823,85.9373 104.3853,79.0123 105.0773,65.2133 C105.7873,51.0573 70.1093,38.1383 62.4853,35.0483" id="Fill-1326" fill="#FEFDFC">

</path>
                <path d="M58.0862,87.1029 C49.1502,85.0099 19.2182,69.9259 11.9772,59.1009 C12.2112,60.1919 12.5162,61.2289 12.8882,62.1819 C16.5332,71.5259 42.3572,86.5579 51.9692,88.8089 C61.5812,91.0609 74.8522,91.3139 81.4172,88.6249 C81.6802,88.5179 81.9642,88.4009 82.2562,88.2789 C75.2312,89.3879 65.5592,88.8539 58.0862,87.1029" id="Fill-1328" fill="#D7DCDA">

</path>
                <path d="M82.1777,43.5141 C79.6427,51.8351 78.5057,58.9331 78.4987,60.1881 C78.4707,65.4931 86.1217,73.7961 98.5357,71.4471 C102.7807,70.6441 105.2657,64.7061 103.6887,60.2101 C101.3547,53.2541 92.0947,48.4341 82.1777,43.5141" id="Fill-1330" fill="#D7DCDA">

</path>
                <path d="M99.869,11.3909 C86.907,13.0619 77.904,57.0309 78.499,60.1879 C79.46,65.2869 92.652,72.7759 100.421,68.3219 C105.946,65.1549 104.266,39.7559 107.208,38.2119 C111.233,36.0999 115.878,44.6669 120.857,45.7849 C125.835,46.9039 129.978,43.0859 130.245,39.5529 C130.883,31.1159 112.387,9.7769 99.869,11.3909" id="Fill-1332" fill="#FEFDFC">

</path>
                <path d="M110.7554,26.012 C110.7554,24.926 109.8754,24.046 108.7894,24.046 C107.7034,24.046 106.8234,24.926 106.8234,26.012 C106.8234,27.098 107.7034,27.978 108.7894,27.978 C109.8754,27.978 110.7554,27.098 110.7554,26.012" id="Fill-1334" fill="#4E433A">

</path>
                <path d="M111.7065,16.1267 C111.7065,18.2577 115.3715,20.0417 116.5995,19.8357 C117.8265,19.6297 129.3835,0.9667 128.2795,0.2997 C127.1745,-0.3663 111.7065,13.9957 111.7065,16.1267" id="Fill-1336" fill="#F7BF6D">

</path>
                <path d="M99.5787,7.2845 C96.8317,8.1705 98.5447,17.7835 99.5787,19.4145 C100.6127,21.0455 106.0097,18.9885 107.2957,17.8305 C108.5817,16.6735 102.3257,6.3985 99.5787,7.2845" id="Fill-1338" fill="#D7DCDA">

</path>
                <path d="M88.0199,41.7991 C86.3469,42.9601 85.2029,50.9251 85.4759,52.3841 C85.6289,53.1991 86.2619,54.5591 87.2279,54.9241 C87.9909,55.2121 89.4929,54.9721 90.0299,54.2691 C91.2369,52.6911 93.0929,45.9791 92.9209,43.7791 C92.7809,41.9751 90.5559,40.0401 88.0199,41.7991" id="Fill-1340" fill="#B55D75">

</path>
                <path d="M87.8033,41.9275 C86.1273,43.0845 84.3273,51.3635 84.6003,52.8225 C84.8743,54.2805 87.5173,55.5265 88.7123,54.7395 C89.9083,53.9525 92.0463,46.0255 92.0463,44.2165 C92.0463,42.4075 89.4793,40.7705 87.8033,41.9275" id="Fill-1342" fill="#D47087">

</path>
                <path d="M72.2481,52.9809 C70.8511,52.0869 59.2111,44.4789 54.8101,43.7389 C50.4091,42.9999 45.4221,42.8819 41.4701,44.8799 C37.5191,46.8779 36.9991,51.2679 37.9981,55.1239 C38.9981,58.9789 51.4571,64.8949 55.8861,65.2919 C64.0931,66.0289 72.0951,64.7779 74.4791,61.0299 C77.2401,56.6889 73.6451,53.8749 72.2481,52.9809" id="Fill-1344" fill="#D7DCDA">

</path>
                <path d="M71.5752,54.3696 C70.1782,53.4756 59.5332,46.5596 55.1322,45.8206 C50.7312,45.0806 45.7442,44.9626 41.7922,46.9616 C37.8412,48.9596 36.9982,51.2686 37.9982,55.1236 C38.9982,58.9786 51.4572,64.8946 55.8862,65.2916 C64.0932,66.0286 70.8582,65.5356 73.2422,61.7876 C76.0032,57.4456 72.9722,55.2636 71.5752,54.3696" id="Fill-1346" fill="#FEFDFC">

</path>
                <path d="M53.9713,64.9204 C53.9713,64.9204 65.9733,56.8324 74.3663,54.8674 C73.9873,54.3814 73.5603,53.9724 73.1613,53.6444 C65.0293,56.0434 53.9713,64.9204 53.9713,64.9204" id="Fill-1348" fill="#D7DCDA">

</path>
                <path d="M42.772,59.7522 C42.772,59.7522 55.159,49.6352 63.552,47.6702 L61.406,46.4922 C53.274,48.8912 42.772,59.7522 42.772,59.7522" id="Fill-1350" fill="#D7DCDA">

</path>
                <path d="M90.1816,44.505 C90.1816,44.505 87.6896,45.487 87.1536,46.146 C86.6176,46.806 85.8406,49.977 86.0596,50.743 C86.2786,51.509 88.1066,51.91 88.1066,51.91 C88.1066,51.91 88.7126,52.968 88.1066,53.697 C87.7486,54.127 86.2056,53.551 86.2056,53.551 C86.2056,53.551 83.8346,52.165 83.5426,50.852 C83.2506,49.539 84.1266,45.745 84.8196,44.833 C85.5126,43.921 87.8036,43.046 87.8036,43.046 C87.8036,43.046 88.8686,42.718 89.5246,43.046 C90.1816,43.374 90.1816,44.505 90.1816,44.505" id="Fill-1352" fill="#EEA8B7">

</path>
                <path d="M87.2109,59.8706 C87.2109,58.2756 86.2229,56.9836 85.0049,56.9836 C83.7869,56.9836 82.7989,58.2756 82.7989,59.8706 C82.7989,61.4656 83.7869,62.7576 85.0049,62.7576 C86.2229,62.7576 87.2109,61.4656 87.2109,59.8706" id="Fill-1354" fill="#D7DCDA">

</path>
                <path d="M86.3379,59.8706 C86.3379,58.9066 85.7409,58.1256 85.0049,58.1256 C84.2689,58.1256 83.6719,58.9066 83.6719,59.8706 C83.6719,60.8336 84.2689,61.6156 85.0049,61.6156 C85.7409,61.6156 86.3379,60.8336 86.3379,59.8706" id="Fill-1356" fill="#B55D75">

</path>
                <polygon id="Fill-1358" fill="#B55D75" points="85.0051 58.1261 83.8491 58.1141 83.7781 61.5981 85.0051 61.6151">

</polygon>
                <path d="M85.1818,59.8585 C85.1818,58.8945 84.5848,58.1135 83.8488,58.1135 C83.1128,58.1135 82.5158,58.8945 82.5158,59.8585 C82.5158,60.8215 83.1128,61.6035 83.8488,61.6035 C84.5848,61.6035 85.1818,60.8215 85.1818,59.8585" id="Fill-1360" fill="#D47087">

</path>
            </g>
        </g>
    </g>
</svg>